<svg width="472" height="143" viewBox="0 0 472 143" fill="none" xmlns="http://www.w3.org/2000/svg">
<path d="M38.46 70.2305L69.24 28.4305C72.12 24.4105 73.59 20.5105 73.59 16.7205C73.59 12.0405 71.75 8.08049 68.06 4.85049C64.38 1.62049 60.43 0.000488281 56.19 0.000488281C50.85 0.000488281 46.61 2.23049 43.49 6.69049L17.48 41.9505L40.03 72.3405L38.48 70.2405L38.46 70.2305Z" fill="url(#paint0_linear_16_2)"/>
<path d="M38.46 70.2305L69.24 28.4305C72.12 24.4105 73.59 20.5105 73.59 16.7205C73.59 12.0405 71.75 8.08049 68.06 4.85049C64.38 1.62049 60.43 0.000488281 56.19 0.000488281C50.85 0.000488281 46.61 2.23049 43.49 6.69049L17.48 41.9505L40.03 72.3405L38.48 70.2405L38.46 70.2305Z" fill="url(#paint1_linear_16_2)"/>
<path d="M70.23 113.371L40.01 72.3407L17.46 41.9507L3.00999 61.5307C0.999995 64.2107 0 67.2207 0 70.5607C0 73.6907 0.989995 76.8107 3.00999 79.9207L42.8 135.101C44.36 137.331 46.31 139.061 48.66 140.291C50.99 141.521 53.38 142.131 55.84 142.131C60.08 142.131 64.14 140.521 68.05 137.281C71.95 134.051 73.91 129.761 73.91 124.411C73.91 120.181 72.68 116.501 70.22 113.381L70.23 113.371Z" fill="url(#paint2_linear_16_2)"/>
<path d="M70.23 113.371L40.01 72.3407L17.46 41.9507L3.00999 61.5307C0.999995 64.2107 0 67.2207 0 70.5607C0 73.6907 0.989995 76.8107 3.00999 79.9207L42.8 135.101C44.36 137.331 46.31 139.061 48.66 140.291C50.99 141.521 53.38 142.131 55.84 142.131C60.08 142.131 64.14 140.521 68.05 137.281C71.95 134.051 73.91 129.761 73.91 124.411C73.91 120.181 72.68 116.501 70.22 113.381L70.23 113.371Z" fill="url(#paint3_linear_16_2)"/>
<path d="M227.82 0.625488H209.91L192.74 86.0455C197.16 134.545 230.54 141.505 230.54 141.505L252.53 30.7255C255.62 15.1455 243.7 0.63549 227.82 0.63549V0.625488Z" fill="url(#paint4_linear_16_2)"/>
<path style="mix-blend-mode:multiply" opacity="0.9" d="M227.82 0.625488H209.91L192.74 86.0455C197.16 134.545 230.54 141.505 230.54 141.505L252.53 30.7255C255.62 15.1455 243.7 0.63549 227.82 0.63549V0.625488Z" fill="url(#paint5_linear_16_2)"/>
<path d="M248.44 0.765373H228.57L238.77 75.6754L248.09 141.495H289.24L294.92 132.385L285.57 74.5154L278.09 26.1754C275.83 11.5454 263.24 0.755371 248.44 0.755371V0.765373Z" fill="url(#paint6_linear_16_2)"/>
<path d="M331.65 0.765625L285.58 74.5256L294.93 132.396L321.39 89.9756L311.13 141.506H359.82L380.66 36.6256C384.35 18.0656 370.15 0.77562 351.23 0.77562H331.66L331.65 0.765625Z" fill="url(#paint7_linear_16_2)"/>
<path style="mix-blend-mode:multiply" opacity="0.7" d="M331.65 0.765625L285.58 74.5256L294.93 132.396L321.39 89.9756L311.13 141.506H359.82L380.66 36.6256C384.35 18.0656 370.15 0.77562 351.23 0.77562H331.66L331.65 0.765625Z" fill="url(#paint8_linear_16_2)"/>
<path d="M102.65 75.7756L89.9099 141.496H138.6L150.06 83.8056L119.56 66.5956C112.29 63.6556 104.15 68.0756 102.66 75.7756H102.65Z" fill="url(#paint9_linear_16_2)"/>
<path d="M192.74 86.0355L175.42 22.7855C171.86 9.77549 160.05 0.74549 146.56 0.70549L117.97 0.625488L112.3 27.7355C110 38.7455 114.11 50.1055 122.93 57.0955L150.96 79.2955L167.82 141.505H230.54C230.54 141.505 205.23 133.715 192.74 86.0455V86.0355Z" fill="url(#paint10_linear_16_2)"/>
<path d="M432.696 71.9004L401.916 113.7C399.036 117.72 397.566 121.62 397.566 125.41C397.566 130.09 399.406 134.05 403.096 137.28C406.776 140.51 410.726 142.13 414.966 142.13C420.306 142.13 424.546 139.9 427.666 135.44L453.676 100.18L431.126 69.7904L432.676 71.8904L432.696 71.9004Z" fill="url(#paint11_linear_16_2)"/>
<path d="M432.696 71.9004L401.916 113.7C399.036 117.72 397.566 121.62 397.566 125.41C397.566 130.09 399.406 134.05 403.096 137.28C406.776 140.51 410.726 142.13 414.966 142.13C420.306 142.13 424.546 139.9 427.666 135.44L453.676 100.18L431.126 69.7904L432.676 71.8904L432.696 71.9004Z" fill="url(#paint12_linear_16_2)"/>
<path d="M400.926 28.7602L431.146 69.7902L453.696 100.18L468.146 80.6002C470.156 77.9202 471.156 74.9102 471.156 71.5702C471.156 68.4402 470.166 65.3202 468.146 62.2102L428.356 7.03017C426.796 4.80017 424.846 3.07019 422.496 1.84019C420.166 0.610195 417.776 0.000167847 415.316 0.000167847C411.076 0.000167847 407.016 1.61017 403.106 4.85017C399.206 8.08017 397.246 12.3702 397.246 17.7202C397.246 21.9502 398.476 25.6302 400.936 28.7502L400.926 28.7602Z" fill="url(#paint13_linear_16_2)"/>
<path d="M400.926 28.7602L431.146 69.7902L453.696 100.18L468.146 80.6002C470.156 77.9202 471.156 74.9102 471.156 71.5702C471.156 68.4402 470.166 65.3202 468.146 62.2102L428.356 7.03017C426.796 4.80017 424.846 3.07019 422.496 1.84019C420.166 0.610195 417.776 0.000167847 415.316 0.000167847C411.076 0.000167847 407.016 1.61017 403.106 4.85017C399.206 8.08017 397.246 12.3702 397.246 17.7202C397.246 21.9502 398.476 25.6302 400.936 28.7502L400.926 28.7602Z" fill="url(#paint14_linear_16_2)"/>
<defs>
<linearGradient id="paint0_linear_16_2" x1="21.4995" y1="65.0005" x2="65.067" y2="4.68807" gradientUnits="userSpaceOnUse">
<stop stop-color="#7F22FE"/>
<stop offset="1" stop-color="#00BCFF"/>
</linearGradient>
<linearGradient id="paint1_linear_16_2" x1="64.4995" y1="3.50049" x2="19.9995" y2="65.5005" gradientUnits="userSpaceOnUse">
<stop stop-color="#47ACFF" stop-opacity="0.290196"/>
<stop offset="1" stop-color="#30164C" stop-opacity="0.34"/>
</linearGradient>
<linearGradient id="paint2_linear_16_2" x1="36.96" y1="239.791" x2="36.96" y2="80.5207" gradientUnits="userSpaceOnUse">
<stop stop-color="#040849"/>
<stop offset="0.53" stop-color="#0077E1"/>
<stop offset="1" stop-color="#01FFCA"/>
</linearGradient>
<linearGradient id="paint3_linear_16_2" x1="42.1834" y1="138.563" x2="28.9937" y2="63.273" gradientUnits="userSpaceOnUse">
<stop stop-color="#7F22FE"/>
<stop offset="1" stop-color="#00BCFF"/>
</linearGradient>
<linearGradient id="paint4_linear_16_2" x1="227.144" y1="136.488" x2="196.937" y2="36.4853" gradientUnits="userSpaceOnUse">
<stop stop-color="#7F22FE"/>
<stop offset="1" stop-color="#00BCFF"/>
</linearGradient>
<linearGradient id="paint5_linear_16_2" x1="199.75" y1="133.325" x2="223.7" y2="60.4755" gradientUnits="userSpaceOnUse">
<stop stop-color="#6834A0"/>
<stop offset="0.61" stop-color="#47ACFF" stop-opacity="0"/>
</linearGradient>
<linearGradient id="paint6_linear_16_2" x1="266.438" y1="136.483" x2="238.64" y2="35.0854" gradientUnits="userSpaceOnUse">
<stop stop-color="#7F22FE"/>
<stop offset="1" stop-color="#00BCFF"/>
</linearGradient>
<linearGradient id="paint7_linear_16_2" x1="340.18" y1="136.494" x2="320.175" y2="31.2785" gradientUnits="userSpaceOnUse">
<stop stop-color="#7F22FE"/>
<stop offset="1" stop-color="#00BCFF"/>
</linearGradient>
<linearGradient id="paint8_linear_16_2" x1="295.38" y1="112.046" x2="348.6" y2="68.8056" gradientUnits="userSpaceOnUse">
<stop stop-color="#6834A0"/>
<stop offset="0.61" stop-color="#47ACFF" stop-opacity="0"/>
</linearGradient>
<linearGradient id="paint9_linear_16_2" x1="124.24" y1="138.796" x2="114.92" y2="81.5856" gradientUnits="userSpaceOnUse">
<stop stop-color="#7F22FE"/>
<stop offset="1" stop-color="#00BCFF"/>
</linearGradient>
<linearGradient id="paint10_linear_16_2" x1="179.514" y1="136.488" x2="163.182" y2="29.8628" gradientUnits="userSpaceOnUse">
<stop stop-color="#7F22FE"/>
<stop offset="1" stop-color="#00BCFF"/>
</linearGradient>
<linearGradient id="paint11_linear_16_2" x1="449.657" y1="77.1304" x2="406.089" y2="137.443" gradientUnits="userSpaceOnUse">
<stop stop-color="#7F22FE"/>
<stop offset="1" stop-color="#00BCFF"/>
</linearGradient>
<linearGradient id="paint12_linear_16_2" x1="406.657" y1="138.63" x2="451.157" y2="76.6304" gradientUnits="userSpaceOnUse">
<stop stop-color="#47ACFF" stop-opacity="0.290196"/>
<stop offset="1" stop-color="#30164C" stop-opacity="0.34"/>
</linearGradient>
<linearGradient id="paint13_linear_16_2" x1="434.196" y1="-97.6598" x2="434.196" y2="61.6102" gradientUnits="userSpaceOnUse">
<stop stop-color="#040849"/>
<stop offset="0.53" stop-color="#0077E1"/>
<stop offset="1" stop-color="#01FFCA"/>
</linearGradient>
<linearGradient id="paint14_linear_16_2" x1="428.973" y1="3.56781" x2="442.163" y2="78.8579" gradientUnits="userSpaceOnUse">
<stop stop-color="#7F22FE"/>
<stop offset="1" stop-color="#00BCFF"/>
</linearGradient>
</defs>
</svg>
