<svg width="797" height="241" viewBox="0 0 797 241" fill="none" xmlns="http://www.w3.org/2000/svg">
<path d="M118.654 191.541L67.5972 122.22L29.4988 70.8759L5.08541 103.956C1.6895 108.484 0 113.57 0 119.213C0 124.501 1.6726 129.772 5.08541 135.027L72.3109 228.254C74.9465 232.021 78.241 234.944 82.2114 237.022C86.1479 239.1 90.1859 240.131 94.3421 240.131C101.506 240.131 108.365 237.411 114.971 231.937C121.56 226.48 124.871 219.232 124.871 210.193C124.871 203.046 122.793 196.829 118.637 191.557L118.654 191.541Z" fill="black"/>
<path d="M94.9342 0.00102267C102.097 0.00121966 108.77 2.73798 114.987 8.19447C121.221 13.6515 124.33 20.3424 124.331 28.2491C124.331 34.6522 121.847 41.2416 116.982 48.0332L67.0606 115.826L31.614 68.0532L73.4771 11.3046C78.7484 3.76935 85.9122 0.00102267 94.9342 0.00102267Z" fill="black"/>
<path d="M173.428 128.023L151.904 239.058H234.166L253.527 141.59L201.997 112.513C189.715 107.546 175.962 115.014 173.445 128.023H173.428Z" fill="black"/>
<path d="M325.636 145.358L296.373 38.4962C290.359 16.5157 270.406 1.25949 247.614 1.19191L199.311 1.05675L189.732 46.8593C185.846 65.4608 192.79 84.6536 207.691 96.4632L255.048 133.97L283.533 239.075H389.499C389.499 239.075 346.738 225.913 325.636 145.374V145.358Z" fill="black"/>
<path d="M384.904 1.05675V1.07325C411.733 1.07358 431.872 25.5882 426.652 51.9103L390.162 235.73C389.899 235.634 389.489 235.476 388.948 235.245C387.853 234.777 386.22 234.006 384.171 232.829C380.076 230.477 374.312 226.494 367.872 220.039C355.054 207.193 339.43 184.429 329.015 144.934V144.904L327.119 137.986L354.645 1.05675H384.904Z" fill="black"/>
<path d="M419.74 1.27599C444.745 1.27599 466.016 19.5057 469.835 44.2231L482.473 125.894L498.269 223.666L488.673 239.058H419.15L408.239 162.013L429.966 52.5667C434.359 30.4156 422.113 9.4551 402.779 1.29249H419.74V1.27599Z" fill="black"/>
<path d="M560.342 1.31086H593.405C625.37 1.31086 649.362 30.5219 643.128 61.879L607.919 239.074H525.656L542.99 152.015L500.992 219.343L485.809 125.354L485.219 121.541L560.324 1.29271L560.342 1.31086Z" fill="black"/>
<path d="M677.368 48.5902L728.425 117.911L766.523 169.255L790.936 136.174C794.332 131.646 796.022 126.561 796.022 120.918C796.022 115.63 794.349 110.359 790.936 105.104L723.711 11.8772C721.075 8.10963 717.781 5.18683 713.81 3.10874C709.874 1.03064 705.836 0 701.68 0C694.516 0 687.657 2.72012 681.051 8.19412C674.462 13.6512 671.15 20.8992 671.15 29.9381C671.15 37.0847 673.228 43.3021 677.385 48.5734L677.368 48.5902Z" fill="black"/>
<path d="M764.408 172.076L722.545 228.827C717.274 236.362 710.11 240.13 701.088 240.13C693.925 240.13 687.252 237.393 681.035 231.937C674.801 226.48 671.692 219.789 671.691 211.882C671.691 205.479 674.175 198.89 679.04 192.098L728.96 124.303L764.408 172.076Z" fill="black"/>
</svg>
